<?xml version="1.0" encoding="utf-8"?>
<!-- Generator: Adobe Illustrator 23.0.1, SVG Export Plug-In . SVG Version: 6.00 Build 0)  -->
<svg version="1.1" id="Object" xmlns="http://www.w3.org/2000/svg" xmlns:xlink="http://www.w3.org/1999/xlink" x="0px" y="0px"
	 viewBox="0 0 750 500" style="enable-background:new 0 0 750 500;" xml:space="preserve">
<style type="text/css">
	.st0{fill:url(#SVGID_1_);}
	.st1{fill:url(#SVGID_2_);}
	.st2{opacity:0.8;fill:url(#SVGID_3_);}
	.st3{opacity:0.8;fill:url(#SVGID_4_);}
	.st4{opacity:0.8;fill:url(#SVGID_5_);}
	.st5{opacity:0.8;fill:url(#SVGID_6_);}
	.st6{opacity:0.8;fill:url(#SVGID_7_);}
	.st7{opacity:0.8;fill:url(#SVGID_8_);}
	.st8{fill:#CBDFEF;}
	.st9{opacity:0.8;fill:url(#SVGID_9_);}
	.st10{fill:#FFFFFF;}
	.st11{fill:url(#SVGID_10_);}
	.st12{fill:#809297;}
	.st13{fill:url(#XMLID_2_);}
	.st14{fill:#8A9EA2;}
	.st15{fill:url(#XMLID_3_);}
	.st16{fill:#92A7AC;}
	.st17{fill:url(#XMLID_4_);}
	.st18{opacity:0.1;fill:#FFFFFF;}
	.st19{fill:#FDC870;}
	.st20{fill:url(#SVGID_11_);}
	.st21{fill:url(#XMLID_5_);}
	.st22{fill:url(#SVGID_12_);}
	.st23{fill:url(#SVGID_13_);}
	.st24{fill:url(#SVGID_14_);}
	.st25{opacity:0.7;fill:url(#SVGID_15_);}
	.st26{opacity:0.7;fill:url(#SVGID_16_);}
	.st27{fill:url(#SVGID_17_);}
	.st28{opacity:0.8;fill:url(#SVGID_18_);}
	.st29{fill:url(#SVGID_19_);}
	.st30{fill:#FFB300;}
	.st31{fill:#FFA000;}
	.st32{fill:#FFCA28;}
	.st33{opacity:0.7;fill:url(#SVGID_20_);}
	.st34{opacity:0.7;fill:url(#SVGID_21_);}
	.st35{fill:url(#SVGID_22_);}
	.st36{opacity:0.8;fill:url(#SVGID_23_);}
	.st37{fill:url(#SVGID_24_);}
	.st38{fill:#D32F2F;}
	.st39{opacity:0.8;fill:url(#SVGID_25_);}
	.st40{fill:#EF5350;}
	.st41{fill:none;stroke:#FFFFFF;stroke-width:1.0404;stroke-miterlimit:10;}
	.st42{opacity:0.7;fill:url(#SVGID_26_);}
	.st43{opacity:0.7;fill:url(#SVGID_27_);}
	.st44{fill:url(#SVGID_28_);}
	.st45{fill:#25284C;}
	.st46{fill:#111638;}
	.st47{fill:#F5F5F5;}
	.st48{fill:#7B92B9;}
	.st49{fill:#6A7EA2;}
	.st50{fill:none;stroke:#FFFFFF;stroke-width:0.7521;stroke-miterlimit:10;}
	.st51{opacity:0.8;fill:url(#SVGID_29_);}
	.st52{opacity:0.8;fill:url(#SVGID_30_);}
	.st53{opacity:0.8;fill:url(#SVGID_31_);}
	.st54{fill:url(#SVGID_32_);}
	.st55{fill:url(#SVGID_33_);}
	.st56{opacity:0.7;fill:url(#SVGID_34_);}
	.st57{fill:url(#SVGID_35_);}
	.st58{fill:none;stroke:#FFFFFF;stroke-width:1.0404;stroke-linecap:round;stroke-linejoin:round;stroke-miterlimit:10;}
	.st59{fill:#FFEE58;}
	.st60{fill:none;stroke:#FFFFFF;stroke-width:0.5202;stroke-linecap:round;stroke-linejoin:round;stroke-miterlimit:10;}
	.st61{fill:url(#SVGID_36_);}
</style>
<g>
	<g>
		<linearGradient id="SVGID_1_" gradientUnits="userSpaceOnUse" x1="500.0841" y1="420.7943" x2="500.0841" y2="111.2433">
			<stop  offset="1.860120e-03" style="stop-color:#AC24B9"/>
			<stop  offset="1" style="stop-color:#2E2142"/>
		</linearGradient>
		<path class="st0" d="M668.1,344.7c-0.5,2.8-1.1,5.6-1.7,8.4c-0.5,2.1-1,4.3-1.6,6.3c-3.2,11.6-7.8,23.2-14.1,33.4
			c-6.5,10.5-14.8,19.6-25.3,25.9c-5.7,3.4-11.8,5.9-18.1,7.7H391.6c-20.9-11.3-39.1-31.2-35.2-54.6c3.5-20.3,6.7-40.5-0.4-59.3
			c-5.2-13.6-15.4-24.8-21.1-38.2c-14.2-33.2,3.7-63.3,30.2-81.8c1-0.7,1.9-1.3,2.9-2c0.2-0.1,0.5-0.3,0.7-0.5
			c1.1-0.7,2.1-1.4,3.2-2.1c2.3-1.6,4.5-3.3,6.6-5h0c1.6-1.3,3.2-2.7,4.8-4.1c0.4-0.3,0.8-0.6,1.1-1c2.2-1.9,4.3-3.9,6.4-6
			c1.1-1.1,2.2-2.2,3.3-3.3c8.5-8.5,16.7-17.4,25.6-25.2c8.5-7.4,17.8-13.7,28.7-17.7c6.8-2.5,13.8-4.2,20.9-5.2
			c27.9-3.9,57,3.5,79.7,20.9c1.1,0.9,2.2,1.7,3.3,2.6c11.7,9.6,22.5,21.8,27.3,35.9c6,17.8,14.9,34.9,31,45.5
			c13.3,8.7,25.9,14.5,36.6,27.1c3.8,4.6,7.1,9.4,9.9,14.4c2.3,4.1,4.3,8.3,5.9,12.6c2.2,5.8,3.9,11.7,5,17.7
			C671.1,313,670.8,329,668.1,344.7z"/>
		<linearGradient id="SVGID_2_" gradientUnits="userSpaceOnUse" x1="347.1031" y1="417.7323" x2="330.2096" y2="311.3028">
			<stop  offset="1.860120e-03" style="stop-color:#AC24B9"/>
			<stop  offset="1" style="stop-color:#2E2142"/>
		</linearGradient>
		<path class="st1" d="M332.5,380.7c-0.3,5.9,0,12.1,3,17.2c2.5,4.3,8.3,7.6,12.3,4.7c3-2.2,3.3-6.7,2.2-10.3c-1-3.6-3-7-3.2-10.8
			c-0.4-5.9,6.5-21-3.9-21.7C333.4,359.1,332.9,374.9,332.5,380.7z"/>
		<g>
			<linearGradient id="SVGID_3_" gradientUnits="userSpaceOnUse" x1="410.7485" y1="419.9714" x2="413.9707" y2="375.7401">
				<stop  offset="0" style="stop-color:#FFFFFF;stop-opacity:0"/>
				<stop  offset="1" style="stop-color:#662D8D"/>
			</linearGradient>
			<ellipse class="st2" cx="412.1" cy="401.6" rx="20.3" ry="8"/>
			<linearGradient id="SVGID_4_" gradientUnits="userSpaceOnUse" x1="514.5037" y1="421.0277" x2="517.7258" y2="376.7967">
				<stop  offset="0" style="stop-color:#FFFFFF;stop-opacity:0"/>
				<stop  offset="1" style="stop-color:#662D8D"/>
			</linearGradient>
			<ellipse class="st3" cx="515.8" cy="402.6" rx="20.3" ry="8"/>
			<linearGradient id="SVGID_5_" gradientUnits="userSpaceOnUse" x1="522.5635" y1="373.143" x2="378.4451" y2="371.3855">
				<stop  offset="0" style="stop-color:#FFFFFF;stop-opacity:0"/>
				<stop  offset="1" style="stop-color:#662D8D"/>
			</linearGradient>
			<polygon class="st4" points="398.6,366.3 417,366.3 457.9,385.3 452.5,397.4 471.7,397.4 513.2,371.6 462.3,353.8 432.1,347 			
				"/>
			<linearGradient id="SVGID_6_" gradientUnits="userSpaceOnUse" x1="480.831" y1="228.7877" x2="402.9137" y2="316.0783">
				<stop  offset="0" style="stop-color:#FFFFFF;stop-opacity:0"/>
				<stop  offset="1" style="stop-color:#662D8D"/>
			</linearGradient>
			<rect x="402.4" y="227.2" class="st5" width="100.8" height="66.1"/>
			<linearGradient id="SVGID_7_" gradientUnits="userSpaceOnUse" x1="719.4966" y1="359.83" x2="553.9634" y2="359.83">
				<stop  offset="0" style="stop-color:#FFFFFF;stop-opacity:0"/>
				<stop  offset="1" style="stop-color:#662D8D"/>
			</linearGradient>
			<path class="st6" d="M668.1,326.8v17.9c-0.5,2.8-1.1,5.6-1.7,8.4c-0.5,2.1-1,4.3-1.6,6.3c-3.2,11.6-7.8,23.2-14.1,33.4H598v-66.1
				H668.1z"/>
			<linearGradient id="SVGID_8_" gradientUnits="userSpaceOnUse" x1="695.2813" y1="310.2101" x2="518.8784" y2="310.2101">
				<stop  offset="0" style="stop-color:#FFFFFF;stop-opacity:0"/>
				<stop  offset="1" style="stop-color:#662D8D"/>
			</linearGradient>
			<path class="st7" d="M668.1,297.7v47c-0.5,2.8-1.1,5.6-1.7,8.4h-147v-85.8h137.7c2.3,4.1,4.3,8.3,5.9,12.6
				C665.3,285.7,667,291.6,668.1,297.7z"/>
			<g>
				<path class="st8" d="M552.4,332.2V285H446.9v47.2l0,0c0,7.8,5.2,15.6,15.5,21.5c20.6,11.9,54,11.9,74.6,0
					C547.2,347.8,552.4,340,552.4,332.2z"/>
				<linearGradient id="SVGID_9_" gradientUnits="userSpaceOnUse" x1="491.7654" y1="323.8638" x2="571.0844" y2="323.8638">
					<stop  offset="0" style="stop-color:#FFFFFF;stop-opacity:0"/>
					<stop  offset="1" style="stop-color:#662D8D"/>
				</linearGradient>
				<path class="st9" d="M552.4,332.2V285H446.9v47.2l0,0c0,7.8,5.2,15.6,15.5,21.5c20.6,11.9,54,11.9,74.6,0
					C547.2,347.8,552.4,340,552.4,332.2z"/>
				<ellipse class="st10" cx="499.6" cy="285" rx="52.8" ry="30.5"/>
				<g>
					<linearGradient id="SVGID_10_" gradientUnits="userSpaceOnUse" x1="499.6359" y1="230.1841" x2="499.6359" y2="334.6289">
						<stop  offset="1.694780e-03" style="stop-color:#00D4C8"/>
						<stop  offset="1" style="stop-color:#00D2C7;stop-opacity:0"/>
					</linearGradient>
					<ellipse class="st11" cx="499.6" cy="279.1" rx="52.8" ry="30.5"/>
					<g>
						<path id="XMLID_914_" class="st12" d="M512.5,270c-0.2,5.5-6.3,9.8-13.6,9.5c-7.3-0.2-13.1-4.9-12.9-10.4
							c0.2-5.5,6.3-9.8,13.6-9.5C506.9,259.9,512.7,264.5,512.5,270z"/>
						<linearGradient id="XMLID_2_" gradientUnits="userSpaceOnUse" x1="485.9988" y1="269.571" x2="512.5031" y2="269.571">
							<stop  offset="3.946110e-03" style="stop-color:#FFFFFF;stop-opacity:0"/>
							<stop  offset="1" style="stop-color:#92A7AC"/>
						</linearGradient>
						<path id="XMLID_913_" class="st13" d="M512.5,270c-0.2,5.5-6.3,9.8-13.6,9.5c-7.3-0.2-13.1-4.9-12.9-10.4
							c0.2-5.5,6.3-9.8,13.6-9.5C506.9,259.9,512.7,264.5,512.5,270z"/>
						<path id="XMLID_912_" class="st14" d="M521.3,258.2c-0.2,6.7-10.1,11.8-22,11.4c-11.9-0.4-21.4-6.2-21.2-12.9
							c0.2-6.7,10.1-11.8,22-11.4C512,245.7,521.5,251.4,521.3,258.2z"/>
						<linearGradient id="XMLID_3_" gradientUnits="userSpaceOnUse" x1="492.245" y1="257.4272" x2="517.3071" y2="257.4272">
							<stop  offset="3.946110e-03" style="stop-color:#FFFFFF;stop-opacity:0"/>
							<stop  offset="1" style="stop-color:#92A7AC"/>
						</linearGradient>
						<path id="XMLID_907_" class="st15" d="M521.3,258.2c-0.2,6.7-10.1,11.8-22,11.4c-11.9-0.4-21.4-6.2-21.2-12.9
							c0.2-6.7,10.1-11.8,22-11.4C512,245.7,521.5,251.4,521.3,258.2z"/>
						
							<ellipse id="XMLID_906_" transform="matrix(3.361241e-02 -0.9994 0.9994 3.361241e-02 233.3353 741.144)" class="st16" cx="499.9" cy="249.9" rx="12.2" ry="21.6"/>
						<linearGradient id="XMLID_4_" gradientUnits="userSpaceOnUse" x1="488.2834" y1="249.9147" x2="518.4398" y2="249.9147">
							<stop  offset="3.946110e-03" style="stop-color:#FFFFFF;stop-opacity:0"/>
							<stop  offset="1" style="stop-color:#92A7AC"/>
						</linearGradient>
						<path id="XMLID_905_" class="st17" d="M521.5,250.6c-0.2,6.7-10.1,11.8-22,11.4c-11.9-0.4-21.4-6.2-21.2-12.9
							c0.2-6.7,10.1-11.8,22-11.4C512.3,238.2,521.8,243.9,521.5,250.6z"/>
						<path id="XMLID_904_" class="st18" d="M481.5,252.7c-0.6,0.3-1.5-0.2-1.9-1.1c-0.5-0.9-0.4-1.9,0.2-2.2
							c0.6-0.3,1.5,0.2,1.9,1.1C482.3,251.4,482.1,252.4,481.5,252.7z"/>
						<path id="XMLID_897_" class="st18" d="M482.7,254.5c-0.4,0.2-0.9,0.1-1-0.3c-0.2-0.3,0-0.8,0.4-1c0.4-0.2,0.9-0.1,1,0.3
							C483.3,253.8,483.1,254.3,482.7,254.5z"/>
						<path id="XMLID_896_" class="st18" d="M481.6,260.8c-0.6,0.3-1.5-0.2-1.9-1.1c-0.5-0.9-0.4-1.9,0.2-2.2
							c0.6-0.3,1.5,0.2,1.9,1.1C482.3,259.5,482.2,260.5,481.6,260.8z"/>
						<path id="XMLID_895_" class="st18" d="M482.8,262.6c-0.4,0.2-0.9,0.1-1-0.3c-0.2-0.3,0-0.8,0.4-1c0.4-0.2,0.9-0.1,1,0.3
							C483.4,261.9,483.2,262.4,482.8,262.6z"/>
						<path id="XMLID_894_" class="st19" d="M539,199.2c0.1-21.8-17.4-36.3-39.1-36.4c-21.7-0.1-39.4,14.1-39.6,35.9
							c-0.1,21.4,10.8,24.6,16.3,35.6c1.7,3.4,1.1,6.5,1.1,6.5c-0.1,8.3,9,13,21.6,13.1c12.6,0.1,21.7-4.5,21.7-12.8
							c0,0-0.6-3.1,1.2-6.5C527.9,223.7,538.9,220.6,539,199.2z"/>
						<linearGradient id="SVGID_11_" gradientUnits="userSpaceOnUse" x1="490.5215" y1="194.0913" x2="524.6473" y2="234.4734">
							<stop  offset="3.946110e-03" style="stop-color:#FFFFFF;stop-opacity:0"/>
							<stop  offset="1" style="stop-color:#FDC870"/>
						</linearGradient>
						<path class="st20" d="M539,199.2c0,1.3-0.1,2.6-0.1,3.8c-0.1,0.9-0.2,1.8-0.3,2.6c-0.6,4.3-1.7,7.7-3.1,10.6
							c0,0.1-0.1,0.1-0.1,0.2c-3.6,7.1-9.1,10.9-12.8,17.4c-0.1,0.2-0.3,0.5-0.4,0.7c-1.8,3.4-1.2,6.5-1.2,6.5c0,0.3,0,0.7-0.1,1
							c0,0.1,0,0.3,0,0.4c0,0.1,0,0.1,0,0.2c0,0.1,0,0.3-0.1,0.4c0,0.1,0,0.3-0.1,0.4c0,0.2-0.1,0.4-0.2,0.6c0,0,0,0,0,0
							c-0.2,0.5-0.4,1-0.6,1.5c0,0,0,0.1,0,0.1c-2.1,4.1-7.2,6.7-14,7.7c-2.1,0.3-4.3,0.5-6.6,0.4c-12.6-0.1-21.6-4.8-21.6-13.1
							c0,0,0.6-3-1.1-6.5c-5.6-11-16.5-14.2-16.3-35.6c0.1-21.8,17.8-36.1,39.6-35.9C521.6,162.9,539.1,177.4,539,199.2z"/>
						
							<linearGradient id="XMLID_5_" gradientUnits="userSpaceOnUse" x1="529.8388" y1="222.5375" x2="529.8388" y2="242.2295" gradientTransform="matrix(0.9996 -2.730000e-02 2.730000e-02 0.9996 -36.759 -18.9818)">
							<stop  offset="3.946110e-03" style="stop-color:#FFFFFF;stop-opacity:0"/>
							<stop  offset="1" style="stop-color:#FDC870"/>
						</linearGradient>
						<path id="XMLID_828_" class="st21" d="M512.1,218.1c-0.7-4.1-5.3-9.6-8.8-4.2c-2.4,3.7-2.1,9-2.1,13.3v0.3
							c-0.4,0-0.8,0.1-1.2,0.1c-0.1,0-0.2,0-0.3,0.1c-0.1,0-0.2-0.1-0.3-0.1c-0.4,0-0.8,0-1.2-0.1v-0.3c0.1-3.8,0.1-7.6-1.1-11.2
							c-1.8-5.7-7-5.4-9.1-0.1c-2,5.1-0.1,9,3.4,11.3c1.4,0.9,3,1.6,4.8,2c0,0.1,0,0.2,0,0.3c0,2.8,0,5.6-0.1,8.4c0,2.5,0,5,0,7.5
							c0,1.1,0,2.3,0,3.4c0,1.7,0,3.3,0,5c0.7,0.1,1.4,0.1,2,0.1c0-1.7,0-3.4,0-5.2c0-1.1,0-2.3,0-3.4c0-2.5,0-5,0.1-7.5
							c0-2.8,0-5.5,0-8.3c0.4,0,0.8,0.1,1.2,0.1c0.1,0,0.2,0,0.3,0c0.1,0,0.2,0.1,0.3,0c0.4,0,0.8,0,1.2-0.1c0,2.8,0,5.5-0.1,8.3
							c0,2.5,0,5,0,7.5c0,1.1,0,2.2,0,3.3c0,0.3,0,0.5,0,0.8c0,1.4,0,2.9,0,4.4v0c0,0,0,0,0,0c0,0,0,0,0,0c0,0,0,0,0,0c0,0,0,0,0,0
							h0.1c0.2,0,0.4,0,0.7,0c0.2,0,0.4,0,0.6,0c0.2,0,0.4,0,0.5,0c0-1.7,0-3.3,0-5c0-0.5,0-1,0-1.5c0-0.6,0-1.2,0-1.8
							c0-2.5,0-5,0.1-7.5c0-2.8,0-5.7,0-8.5v-0.3C508.7,228.1,513.2,224.5,512.1,218.1z M489.4,219.9c0-2.3,2.3-9.1,5.1-5.1
							c2.2,3.1,1.9,8.1,1.7,12.3C492.6,226.4,489.5,224.3,489.4,219.9z M503.2,227.2c-0.1-4.2-0.4-9.2,1.9-12.3
							c2.9-4,5.1,2.9,5.1,5.1C510.1,224.4,506.9,226.4,503.2,227.2z"/>
						
							<linearGradient id="SVGID_12_" gradientUnits="userSpaceOnUse" x1="542.9019" y1="238.5785" x2="512.7485" y2="187.9208" gradientTransform="matrix(0.9996 -2.730000e-02 2.730000e-02 0.9996 -36.759 -18.9818)">
							<stop  offset="3.946110e-03" style="stop-color:#FFFFFF;stop-opacity:0"/>
							<stop  offset="1" style="stop-color:#FFFFFF"/>
						</linearGradient>
						<path class="st22" d="M518.6,193.8c-10.6,6.5-28,7-39,1.1c-10.9-5.9-11.2-16-0.6-22.5c10.6-6.5,28-7,39-1.1
							C528.9,177.2,529.2,187.3,518.6,193.8z"/>
						<linearGradient id="SVGID_13_" gradientUnits="userSpaceOnUse" x1="478.8168" y1="219.3867" x2="446.2291" y2="203.6053">
							<stop  offset="3.946110e-03" style="stop-color:#FFFFFF;stop-opacity:0"/>
							<stop  offset="1" style="stop-color:#FFFFFF"/>
						</linearGradient>
						<path class="st23" d="M465.7,210.2c1.8,5.3,5.3,10.2,8.9,14.3c3.8,4.3,8.4,8.6,9.2,14.3c0.1,0.8,0.1,1.6,0.5,2.3
							c0.4,0.7,1.3,1.2,2,0.9c0.4-0.2,0.6-0.5,0.8-0.9c1.6-2.5,2.1-5.6,1.5-8.5c-1-4.6-4.6-8-7.6-11.4c-2.9-3.3-5.4-7.6-6.3-12
							c-0.6-2.7-0.8-5.6-1.4-8.3c-0.3-1.3-0.7-2.6-1.5-3.7c-0.8-1.1-2-1.9-3.4-1.8c-1.4,0-2.7,1.1-3.4,2.3c-0.7,1.3-0.9,2.7-0.9,4.1
							C464.3,204.7,464.8,207.5,465.7,210.2z"/>
						<linearGradient id="SVGID_14_" gradientUnits="userSpaceOnUse" x1="494.8683" y1="253.6411" x2="522.637" y2="238.6887">
							<stop  offset="3.946110e-03" style="stop-color:#FFFFFF;stop-opacity:0"/>
							<stop  offset="1" style="stop-color:#FDC870"/>
						</linearGradient>
						<path class="st24" d="M539,199.2c0,1.3,0,2.6-0.1,3.8c-0.1,0.9-0.2,1.8-0.3,2.6c-0.6,4.2-1.7,7.6-3.1,10.6
							c0,0.1-0.1,0.1-0.1,0.2c-3.6,7.1-9.1,10.9-12.8,17.4c-0.1,0.2-0.3,0.5-0.4,0.7c-1.8,3.4-1.2,6.5-1.2,6.5c0,0.3,0,0.7-0.1,1
							c0,0.1,0,0.3,0,0.4c0,0.1,0,0.1,0,0.2c0,0.1,0,0.3-0.1,0.4c0,0.1,0,0.3-0.1,0.4c0,0.2-0.1,0.4-0.2,0.6c0,0,0,0,0,0
							c-0.2,0.5-0.4,1-0.6,1.5c0,0,0,0.1,0,0.1c1.1,1.5,1.7,3.2,1.7,5c0,1.3-0.5,2.6-1.2,3.7c0.6,1.2,1,2.5,0.9,3.8
							c-0.1,4-3.7,7.4-9.1,9.5c0.2,0.8,0.3,1.6,0.3,2.4c-0.2,5.5-6.3,9.8-13.6,9.5c-0.4,0-0.8,0-1.2-0.1c1.6-1.9,3.4-3.7,4.3-5.5
							c3.2-6.3,3.6-13.6,3.9-20.5c0-0.1,0-0.3,0-0.4c0.3-5.8,0.6-11.6,1-17.4c0-0.6,0.1-1.2,0.3-1.7c0.7-1.6,2.7-1.9,4.4-2.3
							C529.9,227.2,537.4,213.6,539,199.2z"/>
						<path class="st19" d="M537.4,157.4c0,1.9-1.6,3.5-3.5,3.5c-1.9,0-3.5-1.6-3.5-3.5c0-1.9,1.6-3.5,3.5-3.5
							C535.8,153.9,537.4,155.5,537.4,157.4z"/>
						<path class="st19" d="M537.4,254.6c0,1.9-1.6,3.5-3.5,3.5c-1.9,0-3.5-1.6-3.5-3.5s1.6-3.5,3.5-3.5
							C535.8,251.1,537.4,252.6,537.4,254.6z"/>
						<circle class="st19" cx="470.2" cy="239.4" r="3.5"/>
						<circle class="st19" cx="541.2" cy="147" r="2.2"/>
						<circle class="st19" cx="537.4" cy="234.7" r="2.2"/>
						<circle class="st19" cx="475.9" cy="145.7" r="2.2"/>
						<circle class="st19" cx="543.4" cy="262.1" r="2.2"/>
						<circle class="st19" cx="464.3" cy="273.5" r="2.2"/>
					</g>
					<g>
						<linearGradient id="SVGID_15_" gradientUnits="userSpaceOnUse" x1="414.0432" y1="227.6598" x2="507.5805" y2="227.6598">
							<stop  offset="1.694780e-03" style="stop-color:#00D4C8"/>
							<stop  offset="1" style="stop-color:#00D2C7;stop-opacity:0"/>
						</linearGradient>
						<path class="st25" d="M552.4,279.1V145.7c0,7.8-5.2,15.6-15.5,21.5c-20.6,11.9-54,11.9-74.6,0c-10.3-5.9-15.5-13.7-15.5-21.5
							v133.4l0,0c0,7.8,5.2,15.6,15.5,21.5c20.6,11.9,54,11.9,74.6,0C547.2,294.7,552.4,286.9,552.4,279.1z"/>
						<linearGradient id="SVGID_16_" gradientUnits="userSpaceOnUse" x1="573.9789" y1="227.6598" x2="508.3225" y2="227.6598">
							<stop  offset="1.694780e-03" style="stop-color:#00D4C8"/>
							<stop  offset="1" style="stop-color:#00D2C7;stop-opacity:0"/>
						</linearGradient>
						<path class="st26" d="M552.4,279.1V145.7c0,7.8-5.2,15.6-15.5,21.5c-20.6,11.9-54,11.9-74.6,0c-10.3-5.9-15.5-13.7-15.5-21.5
							v133.4l0,0c0,7.8,5.2,15.6,15.5,21.5c20.6,11.9,54,11.9,74.6,0C547.2,294.7,552.4,286.9,552.4,279.1z"/>
						<linearGradient id="SVGID_17_" gradientUnits="userSpaceOnUse" x1="499.6359" y1="96.8066" x2="499.6359" y2="201.2514">
							<stop  offset="1.694780e-03" style="stop-color:#00D4C8"/>
							<stop  offset="1" style="stop-color:#00D2C7;stop-opacity:0"/>
						</linearGradient>
						<ellipse class="st27" cx="499.6" cy="145.7" rx="52.8" ry="30.5"/>
					</g>
				</g>
				<path class="st10" d="M454.8,230.9L454.8,230.9c-2.2-1.3-3.6-3.7-3.6-6.2v-48.5c0-1.1,1.2-1.7,2.1-1.2l0,0
					c2.3,1.3,3.7,3.8,3.7,6.4v48.3C456.9,230.7,455.7,231.4,454.8,230.9z"/>
				<path class="st10" d="M454.8,252.7L454.8,252.7c-2.2-1.3-3.6-3.7-3.6-6.2v-6.9c0-1.1,1.2-1.7,2.1-1.2l0,0
					c2.3,1.3,3.7,3.8,3.7,6.4v6.7C456.9,252.6,455.7,253.3,454.8,252.7z"/>
			</g>
			<g>
				<path class="st8" d="M634.1,372.4v-31.9h-71.3v31.9l0,0c0,5.3,3.5,10.5,10.4,14.6c13.9,8,36.5,8,50.4,0
					C630.6,383,634.1,377.7,634.1,372.4z"/>
				<linearGradient id="SVGID_18_" gradientUnits="userSpaceOnUse" x1="593.0795" y1="366.7574" x2="646.7101" y2="366.7574">
					<stop  offset="0" style="stop-color:#FFFFFF;stop-opacity:0"/>
					<stop  offset="1" style="stop-color:#662D8D"/>
				</linearGradient>
				<path class="st28" d="M634.1,372.4v-31.9h-71.3v31.9l0,0c0,5.3,3.5,10.5,10.4,14.6c13.9,8,36.5,8,50.4,0
					C630.6,383,634.1,377.7,634.1,372.4z"/>
				<ellipse class="st10" cx="598.4" cy="340.5" rx="35.7" ry="20.6"/>
				<g>
					<linearGradient id="SVGID_19_" gradientUnits="userSpaceOnUse" x1="598.4011" y1="303.417" x2="598.4011" y2="374.0362">
						<stop  offset="1.694780e-03" style="stop-color:#00D4C8"/>
						<stop  offset="1" style="stop-color:#00D2C7;stop-opacity:0"/>
					</linearGradient>
					<ellipse class="st29" cx="598.4" cy="336.5" rx="35.7" ry="20.6"/>
					<g>
						<path class="st19" d="M624,279.1c0,1.3-1.1,2.4-2.4,2.4c-1.3,0-2.4-1.1-2.4-2.4s1.1-2.4,2.4-2.4
							C622.9,276.7,624,277.8,624,279.1z"/>
						<circle class="st19" cx="619.2" cy="330.3" r="2.4"/>
						<path class="st19" d="M580.8,312c0,1.3-1.1,2.4-2.4,2.4c-1.3,0-2.4-1.1-2.4-2.4c0-1.3,1.1-2.4,2.4-2.4
							C579.8,309.6,580.8,310.7,580.8,312z"/>
						<path class="st19" d="M618.4,269.1c0,0.8-0.7,1.5-1.5,1.5c-0.8,0-1.5-0.7-1.5-1.5s0.7-1.5,1.5-1.5
							C617.7,267.6,618.4,268.2,618.4,269.1z"/>
						<path class="st19" d="M611.7,336.5c0,0.8-0.7,1.5-1.5,1.5c-0.8,0-1.5-0.7-1.5-1.5s0.7-1.5,1.5-1.5
							C611,335,611.7,335.7,611.7,336.5z"/>
						<path class="st19" d="M579.7,266.9c0,0.8-0.7,1.5-1.5,1.5c-0.8,0-1.5-0.7-1.5-1.5s0.7-1.5,1.5-1.5
							C579,265.4,579.7,266.1,579.7,266.9z"/>
						<path class="st19" d="M629.5,310.9c0,0.8-0.7,1.5-1.5,1.5c-0.8,0-1.5-0.7-1.5-1.5s0.7-1.5,1.5-1.5
							C628.8,309.4,629.5,310.1,629.5,310.9z"/>
						<path class="st19" d="M576,332.7c0,0.8-0.7,1.5-1.5,1.5c-0.8,0-1.5-0.7-1.5-1.5s0.7-1.5,1.5-1.5
							C575.4,331.2,576,331.8,576,332.7z"/>
						<g>
							<path class="st30" d="M620.8,305.2c0,0.1,0,0.2,0,0.3c0,1.4-0.1,2.7-0.4,3.9c-0.1,0.7-0.3,1.4-0.5,2.1
								c-0.9,2.8-2.5,4.8-4.5,6.1l0,0l-0.2,0.1c-0.1,0.1-0.2,0.1-0.3,0.2l-5.5,3.2l-1.2-2.1c-2.1-0.3-4.5-1.1-6.9-2.5
								c-10.8-6.2-19.6-21.4-19.6-33.9c0-1.3,0.1-2.5,0.3-3.6c0.1-0.7,0.3-1.4,0.4-2c0.2-0.5,0.3-1,0.5-1.5l-1.3-2.2l5.6-3.2
								c0.2-0.1,0.4-0.2,0.6-0.3l0.3-0.2l0,0c2.3-1.1,5-1.3,8.1-0.5c0.6,0.2,1.3,0.4,2,0.6c1,0.4,2.1,0.9,3.2,1.5
								c0.1,0,0.2,0.1,0.2,0.2c0.5,0.3,1,0.6,1.4,0.9c0.9,0.6,1.9,1.3,2.8,2.1c0.4,0.3,0.8,0.7,1.2,1.1c0.8,0.7,1.6,1.5,2.3,2.3
								c0.3,0.4,0.7,0.8,1,1.2c0.7,0.8,1.4,1.7,2,2.5c0.3,0.4,0.6,0.8,0.9,1.3c0.6,0.9,1.2,1.8,1.7,2.7c0.3,0.4,0.5,0.9,0.8,1.3
								c0.5,0.9,1,1.9,1.4,2.9c0.2,0.5,0.4,0.9,0.6,1.4c0.4,1,0.8,2,1.2,3c0.2,0.5,0.3,1,0.5,1.5c0.3,1.1,0.6,2.1,0.8,3.2
								c0.1,0.5,0.2,1.1,0.3,1.6c0.2,1.2,0.3,2.3,0.4,3.5C620.8,304.3,620.8,304.7,620.8,305.2z"/>
							<g>
								<path class="st31" d="M598,269.7l-16.1,9.3l-1.3,0.8l-0.4-1.5l2.1-1.2l13.7-7.9C596.6,269.2,597.3,269.4,598,269.7z"/>
								<path class="st31" d="M602.9,272.3l-19.5,11.3l-0.4-1.5l18.5-10.7C601.9,271.7,602.4,272,602.9,272.3z"/>
								<path class="st31" d="M606.8,275.5l-20.7,11.9l-0.4-1.5l19.9-11.5C606,274.8,606.5,275.1,606.8,275.5z"/>
								<path class="st31" d="M610.2,279L589,291.2l-0.4-1.5l20.6-11.9C609.5,278.2,609.9,278.6,610.2,279z"/>
								<path class="st31" d="M613.1,282.8l-21.3,12.3l-0.4-1.5l20.8-12C612.5,281.9,612.8,282.3,613.1,282.8z"/>
								<path class="st31" d="M615.5,286.8l-21,12.1l-0.4-1.5l20.6-11.9C615,285.9,615.3,286.3,615.5,286.8z"/>
								<path class="st31" d="M617.6,291l-20.2,11.7l-0.4-1.5l20-11.6C617.2,290.1,617.4,290.6,617.6,291z"/>
								<path class="st31" d="M619.2,295.5l-19.1,11l-0.4-1.5l19-11C618.9,294.5,619.1,295,619.2,295.5z"/>
								<path class="st31" d="M620.4,300.3L603,310.4l-0.4-1.5l17.5-10.1C620.2,299.3,620.3,299.8,620.4,300.3z"/>
								<path class="st31" d="M620.8,305.2c0,0.1,0,0.2,0,0.3l-15,8.7l-0.4-1.5l15.4-8.9C620.8,304.3,620.8,304.7,620.8,305.2z"/>
								<path class="st31" d="M620.4,309.4c-0.1,0.7-0.3,1.4-0.5,2.1l-11.3,6.5l-0.4-1.5L620.4,309.4z"/>
							</g>
							
								<ellipse transform="matrix(0.866 -0.5 0.5 0.866 -68.7418 337.6155)" class="st32" cx="595.6" cy="297.1" rx="16" ry="27.7"/>
							<path class="st30" d="M599.2,281.5c-0.7,0-1.4,0-2,0c0.7,0.6,1.5,1.3,2.2,2l1.2-0.7C600.1,282.3,599.7,281.9,599.2,281.5z
								 M581.9,279c0,0,0,0.1,0,0.1c0.1,0,0.3,0.1,0.4,0.1c0.2-0.3,0.3-0.5,0.5-0.8L581.9,279z M599.2,281.5c-0.7,0-1.4,0-2,0
								c0.7,0.6,1.5,1.3,2.2,2l1.2-0.7C600.1,282.3,599.7,281.9,599.2,281.5z M581.8,279.1c0.1,0,0.3,0.1,0.4,0.1
								c0.2-0.3,0.3-0.5,0.5-0.8l-1,0.5C581.8,279,581.8,279.1,581.8,279.1z M611.6,305.4c-0.1-0.5-0.1-1.1-0.2-1.6
								c-0.2-1.1-0.4-2.2-0.8-3.3c-0.1-0.5-0.3-1-0.4-1.5c-0.3-1-0.7-2-1.1-3c-0.2-0.5-0.4-0.9-0.6-1.4c-0.4-1-0.9-1.9-1.4-2.9
								c-0.3-0.5-0.5-0.9-0.8-1.3c-0.5-0.9-1.1-1.8-1.7-2.7c-0.3-0.4-0.6-0.8-0.9-1.2c-0.6-0.9-1.3-1.7-2-2.5
								c-0.4-0.4-0.7-0.8-1.1-1.2c-0.4-0.5-0.9-0.9-1.3-1.3c-0.4-0.3-0.7-0.7-1.1-1c-0.4-0.4-0.8-0.7-1.2-1c-1-0.8-1.9-1.4-2.9-2
								c0,0,0,0-0.1,0c-0.5-0.3-1-0.6-1.5-0.8c-1.4-0.7-2.8-1.1-4.1-1.3c-0.5-0.1-0.9-0.1-1.3-0.1c-0.7,0-1.3,0.1-1.9,0.2
								c-1.1,0.3-1.9,0.8-2.6,1.4l-0.2,0.2l0,0c-0.5,0.5-0.9,1.1-1.2,1.7c-0.1,0.3-0.3,0.5-0.4,0.8v0c-0.9,2.2-1.1,4.6-1.1,6.1
								c0,10.7,7.5,24.2,16.7,30.2c0.4,0.3,0.8,0.5,1.2,0.8c2.5,1.4,4.9,2.2,7,2.2c0.7,0,1.4-0.1,2-0.3c0.8-0.2,1.5-0.6,2.1-1
								c0.3-0.2,0.6-0.5,0.8-0.8c0.5-0.5,0.8-1.1,1.1-1.7v0c0.7-1.4,1.1-3,1.2-4.4c0.1-0.7,0.1-1.3,0.1-1.8c0-0.2,0-0.4,0-0.6
								C611.8,307.4,611.7,306.4,611.6,305.4z M610.1,311.7c-0.3,1.8-1.1,3.8-2.6,4.9c-0.8,0.6-1.8,1-3.1,1c-0.5,0-0.9,0-1.4-0.1h0
								c-1.3-0.2-2.7-0.7-4.2-1.5h0c-0.2-0.1-0.5-0.2-0.7-0.4c-9.3-5.4-17.2-19-17.2-29.8c0-1.3,0.1-3.4,0.8-5.3
								c0.2-0.4,0.4-0.8,0.6-1.2c0.2-0.3,0.3-0.5,0.5-0.8l0,0c0.7-0.9,1.7-1.5,3.1-1.8h0c0.3,0,0.6-0.1,1-0.1c1.2,0,2.6,0.3,4,0.9
								c0.5,0.2,1.1,0.5,1.7,0.8c0.2,0.1,0.4,0.2,0.6,0.4c0.8,0.5,1.6,1,2.4,1.6c0.4,0.3,0.9,0.7,1.3,1c0.1,0.1,0.2,0.1,0.3,0.2h0
								c0.7,0.6,1.5,1.3,2.2,2c0.4,0.4,0.7,0.8,1.1,1.1c0.7,0.8,1.4,1.6,2,2.5c0.3,0.4,0.6,0.8,0.9,1.2c0.6,0.9,1.2,1.8,1.7,2.7
								c0.3,0.4,0.5,0.9,0.8,1.3c0.5,0.9,1,1.9,1.4,2.9c0.2,0.5,0.4,0.9,0.6,1.4c0.4,1,0.8,2,1.1,3.1v0c0.2,0.5,0.3,1,0.5,1.5
								c0.3,1.1,0.5,2.2,0.7,3.3c0.1,0.6,0.2,1.1,0.2,1.6c0.1,0.8,0.1,1.5,0.1,2.2c0,0.4,0,0.9,0,1.4
								C610.3,310.4,610.2,311,610.1,311.7z M581.9,279c0,0,0,0.1,0,0.1c0.1,0,0.3,0.1,0.4,0.1c0.2-0.3,0.3-0.5,0.5-0.8L581.9,279z
								 M599.2,281.5c-0.7,0-1.4,0-2,0c0.7,0.6,1.5,1.3,2.2,2l1.2-0.7C600.1,282.3,599.7,281.9,599.2,281.5z"/>
							<g>
								<path class="st30" d="M601.1,300.6c-0.2-0.5-0.4-0.9-0.7-1.4c-0.6-0.9-1.3-1.7-2.1-2.5c-0.4-0.4-0.8-0.7-1.2-1.1
									c-0.3-0.3-0.6-0.5-0.9-0.7c-0.8-0.5-1.4-1-1.8-1.4c-0.3-0.4-0.5-0.8-0.5-1.3c0-0.1,0-0.2,0-0.2c0.1-0.3,0.3-0.4,0.6-0.3
									c0.3,0,0.8,0.2,1.2,0.5c0.2,0.1,0.3,0.2,0.5,0.3c0.9,0.6,1.7,1.3,2.5,2.3c0.1,0.1,0.2,0.2,0.3,0.3l1.5-1.4l0,0h0l0.4-0.3
									c-0.6-0.9-1.3-1.7-2-2.4c-0.4-0.4-0.8-0.7-1.2-1.1c-0.1-0.1-0.3-0.2-0.4-0.3v-2l-1-0.6l-1.5-0.9l-0.7-0.4v2
									c-0.5-0.2-1-0.3-1.5-0.4h0c-1.1-0.1-1.9,0.3-2.3,1.3c-0.1,0.4-0.2,0.8-0.2,1.3c0,0.2,0,0.4,0,0.5c0.1,1.8,0.8,3.2,1.7,4.4
									l0,0c0,0,0,0,0,0c0.7,0.8,1.5,1.6,2.4,2.3c0.4,0.3,0.9,0.7,1.4,1c0,0,0,0,0.1,0c1.3,0.9,2,1.7,2.2,2.4
									c0.1,0.1,0.1,0.3,0.1,0.4c0,0.5-0.3,0.7-0.7,0.7c-0.4,0-0.8-0.2-1.4-0.5c-1.2-0.7-2.7-1.8-4-4.1l-2.1,1.6
									c1.4,2.6,2.8,4.1,4.4,5.2v2.1l3.3,1.9v-2.2c1.1,0.4,2,0.5,2.8,0.3c0.9-0.2,1.4-0.9,1.6-2.2v0c0-0.2,0-0.4,0-0.5
									C601.7,302.4,601.5,301.5,601.1,300.6z"/>
							</g>
						</g>
					</g>
					<g>
						<linearGradient id="SVGID_20_" gradientUnits="userSpaceOnUse" x1="540.5285" y1="308.9897" x2="603.7727" y2="308.9897">
							<stop  offset="1.694780e-03" style="stop-color:#00D4C8"/>
							<stop  offset="1" style="stop-color:#00D2C7;stop-opacity:0"/>
						</linearGradient>
						<path class="st33" d="M634.1,336.5v-75.6c0,5.3-3.5,10.5-10.4,14.6c-13.9,8-36.5,8-50.4,0c-7-4-10.4-9.3-10.4-14.6v75.6l0,0
							c0,5.3,3.5,10.5,10.4,14.6c13.9,8,36.5,8,50.4,0C630.6,347,634.1,341.8,634.1,336.5z"/>
						<linearGradient id="SVGID_21_" gradientUnits="userSpaceOnUse" x1="648.6672" y1="308.9897" x2="604.2744" y2="308.9897">
							<stop  offset="1.694780e-03" style="stop-color:#00D4C8"/>
							<stop  offset="1" style="stop-color:#00D2C7;stop-opacity:0"/>
						</linearGradient>
						<path class="st34" d="M634.1,336.5v-75.6c0,5.3-3.5,10.5-10.4,14.6c-13.9,8-36.5,8-50.4,0c-7-4-10.4-9.3-10.4-14.6v75.6l0,0
							c0,5.3,3.5,10.5,10.4,14.6c13.9,8,36.5,8,50.4,0C630.6,347,634.1,341.8,634.1,336.5z"/>
						<linearGradient id="SVGID_22_" gradientUnits="userSpaceOnUse" x1="598.4011" y1="227.7941" x2="598.4011" y2="298.4133">
							<stop  offset="1.694780e-03" style="stop-color:#00D4C8"/>
							<stop  offset="1" style="stop-color:#00D2C7;stop-opacity:0"/>
						</linearGradient>
						<ellipse class="st35" cx="598.4" cy="260.9" rx="35.7" ry="20.6"/>
					</g>
				</g>
				<path class="st10" d="M568.1,303.9L568.1,303.9c-1.5-0.9-2.4-2.5-2.4-4.2v-21.8c0-0.7,0.8-1.2,1.4-0.8l0,0
					c1.5,0.9,2.5,2.5,2.5,4.3V303C569.5,303.8,568.7,304.3,568.1,303.9z"/>
				<path class="st10" d="M568.1,318.6L568.1,318.6c-1.5-0.9-2.4-2.5-2.4-4.2v-4.7c0-0.7,0.8-1.2,1.4-0.8l0,0
					c1.5,0.9,2.5,2.5,2.5,4.3v4.5C569.5,318.6,568.7,319,568.1,318.6z"/>
			</g>
			<g>
				<path class="st8" d="M436.4,272.7v-31.9h-71.3v31.9l0,0c0,5.3,3.5,10.5,10.4,14.6c13.9,8,36.5,8,50.4,0
					C433,283.2,436.4,278,436.4,272.7z"/>
				<linearGradient id="SVGID_23_" gradientUnits="userSpaceOnUse" x1="395.4482" y1="267.0258" x2="449.0788" y2="267.0258">
					<stop  offset="0" style="stop-color:#FFFFFF;stop-opacity:0"/>
					<stop  offset="1" style="stop-color:#662D8D"/>
				</linearGradient>
				<path class="st36" d="M436.4,272.7v-31.9h-71.3v31.9l0,0c0,5.3,3.5,10.5,10.4,14.6c13.9,8,36.5,8,50.4,0
					C433,283.2,436.4,278,436.4,272.7z"/>
				<ellipse class="st10" cx="400.8" cy="240.8" rx="35.7" ry="20.6"/>
				<g>
					<linearGradient id="SVGID_24_" gradientUnits="userSpaceOnUse" x1="400.7698" y1="203.6853" x2="400.7698" y2="274.3045">
						<stop  offset="1.694780e-03" style="stop-color:#00D4C8"/>
						<stop  offset="1" style="stop-color:#00D2C7;stop-opacity:0"/>
					</linearGradient>
					<ellipse class="st37" cx="400.8" cy="236.8" rx="35.7" ry="20.6"/>
					<g>
						<circle class="st38" cx="424" cy="179.4" r="2.4"/>
						<circle class="st38" cx="421.6" cy="230.6" r="2.4"/>
						<path class="st38" d="M383.2,212.3c0,1.3-1.1,2.4-2.4,2.4s-2.4-1.1-2.4-2.4c0-1.3,1.1-2.4,2.4-2.4S383.2,211,383.2,212.3z"/>
						<path class="st38" d="M420.7,169.3c0,0.8-0.7,1.5-1.5,1.5s-1.5-0.7-1.5-1.5s0.7-1.5,1.5-1.5S420.7,168.5,420.7,169.3z"/>
						<path class="st38" d="M414.1,236.8c0,0.8-0.7,1.5-1.5,1.5s-1.5-0.7-1.5-1.5s0.7-1.5,1.5-1.5S414.1,235.9,414.1,236.8z"/>
						<path class="st38" d="M382.1,167.2c0,0.8-0.7,1.5-1.5,1.5s-1.5-0.7-1.5-1.5s0.7-1.5,1.5-1.5S382.1,166.4,382.1,167.2z"/>
						<path class="st38" d="M431.9,211.2c0,0.8-0.7,1.5-1.5,1.5s-1.5-0.7-1.5-1.5s0.7-1.5,1.5-1.5S431.9,210.4,431.9,211.2z"/>
						<path class="st38" d="M378.4,232.9c0,0.8-0.7,1.5-1.5,1.5s-1.5-0.7-1.5-1.5s0.7-1.5,1.5-1.5S378.4,232.1,378.4,232.9z"/>
						<g>
							<path class="st38" d="M423.1,205.5c0,0.1,0,0.2,0,0.3c0,1.4-0.1,2.7-0.4,3.9c-0.1,0.7-0.3,1.4-0.5,2.1
								c-0.9,2.8-2.5,4.8-4.5,6.1l0,0l-0.2,0.1c-0.1,0.1-0.2,0.1-0.3,0.2l-5.5,3.2l-1.2-2.1c-2.1-0.3-4.5-1.1-6.9-2.5
								c-10.8-6.2-19.6-21.4-19.6-33.9c0-1.3,0.1-2.5,0.3-3.6c0.1-0.7,0.3-1.4,0.4-2c0.2-0.5,0.3-1,0.5-1.5l-1.3-2.2l5.6-3.2
								c0.2-0.1,0.4-0.2,0.6-0.3l0.3-0.2l0,0c2.3-1.1,5-1.3,8.1-0.5c0.6,0.2,1.3,0.4,2,0.6c1,0.4,2.1,0.9,3.2,1.5
								c0.1,0,0.2,0.1,0.2,0.2c0.5,0.3,1,0.6,1.4,0.9c0.9,0.6,1.9,1.3,2.8,2.1c0.4,0.3,0.8,0.7,1.2,1.1c0.8,0.7,1.6,1.5,2.3,2.3
								c0.3,0.4,0.7,0.8,1,1.2c0.7,0.8,1.4,1.7,2,2.5c0.3,0.4,0.6,0.8,0.9,1.3c0.6,0.9,1.2,1.8,1.7,2.7c0.3,0.4,0.5,0.9,0.8,1.3
								c0.5,0.9,1,1.9,1.4,2.9c0.2,0.5,0.4,0.9,0.6,1.4c0.4,1,0.8,2,1.2,3c0.2,0.5,0.3,1,0.5,1.5c0.3,1.1,0.6,2.1,0.8,3.2
								c0.1,0.5,0.2,1.1,0.3,1.6c0.2,1.2,0.3,2.3,0.4,3.5C423.1,204.5,423.1,205,423.1,205.5z"/>
							<linearGradient id="SVGID_25_" gradientUnits="userSpaceOnUse" x1="398.3113" y1="184.0561" x2="419.2065" y2="224.284">
								<stop  offset="0" style="stop-color:#FFFFFF;stop-opacity:0"/>
								<stop  offset="1" style="stop-color:#662D8D"/>
							</linearGradient>
							<path class="st39" d="M423.1,205.5c0,0.1,0,0.2,0,0.3c0,1.4-0.1,2.7-0.4,3.9c-0.1,0.7-0.3,1.4-0.5,2.1
								c-0.9,2.8-2.5,4.8-4.5,6.1l0,0l-0.2,0.1c-0.1,0.1-0.2,0.1-0.3,0.2l-5.5,3.2l-1.2-2.1c-2.1-0.3-4.5-1.1-6.9-2.5
								c-10.8-6.2-19.6-21.4-19.6-33.9c0-1.3,0.1-2.5,0.3-3.6c0.1-0.7,0.3-1.4,0.4-2c0.2-0.5,0.3-1,0.5-1.5l-1.3-2.2l5.6-3.2
								c0.2-0.1,0.4-0.2,0.6-0.3l0.3-0.2l0,0c2.3-1.1,5-1.3,8.1-0.5c0.6,0.2,1.3,0.4,2,0.6c1,0.4,2.1,0.9,3.2,1.5
								c0.1,0,0.2,0.1,0.2,0.2c0.5,0.3,1,0.6,1.4,0.9c0.9,0.6,1.9,1.3,2.8,2.1c0.4,0.3,0.8,0.7,1.2,1.1c0.8,0.7,1.6,1.5,2.3,2.3
								c0.3,0.4,0.7,0.8,1,1.2c0.7,0.8,1.4,1.7,2,2.5c0.3,0.4,0.6,0.8,0.9,1.3c0.6,0.9,1.2,1.8,1.7,2.7c0.3,0.4,0.5,0.9,0.8,1.3
								c0.5,0.9,1,1.9,1.4,2.9c0.2,0.5,0.4,0.9,0.6,1.4c0.4,1,0.8,2,1.2,3c0.2,0.5,0.3,1,0.5,1.5c0.3,1.1,0.6,2.1,0.8,3.2
								c0.1,0.5,0.2,1.1,0.3,1.6c0.2,1.2,0.3,2.3,0.4,3.5C423.1,204.5,423.1,205,423.1,205.5z"/>
							<ellipse transform="matrix(0.866 -0.5 0.5 0.866 -45.3536 225.4368)" class="st40" cx="398" cy="197.3" rx="16" ry="27.7"/>
							
								<ellipse transform="matrix(0.866 -0.5 0.5 0.866 -45.3536 225.4373)" class="st41" cx="398" cy="197.3" rx="12.6" ry="21.9"/>
							<ellipse transform="matrix(0.866 -0.5 0.5 0.866 -45.3536 225.4369)" class="st41" cx="398" cy="197.3" rx="8.8" ry="15.2"/>
							<path class="st41" d="M404.4,201c0,4.1-2.9,5.7-6.4,3.7c-3.5-2-6.4-7-6.4-11c0-4.1,2.9-5.7,6.4-3.7
								C401.5,192,404.4,197,404.4,201z"/>
							<path class="st10" d="M400.5,198.8c0,1.6-1.1,2.2-2.5,1.4c-1.4-0.8-2.5-2.7-2.5-4.3s1.1-2.2,2.5-1.4
								C399.4,195.3,400.5,197.2,400.5,198.8z"/>
						</g>
					</g>
					<g>
						<linearGradient id="SVGID_26_" gradientUnits="userSpaceOnUse" x1="342.8973" y1="209.2579" x2="406.1414" y2="209.2579">
							<stop  offset="1.694780e-03" style="stop-color:#00D4C8"/>
							<stop  offset="1" style="stop-color:#00D2C7;stop-opacity:0"/>
						</linearGradient>
						<path class="st42" d="M436.4,236.8v-75.6c0,5.3-3.5,10.5-10.4,14.6c-13.9,8-36.5,8-50.4,0c-7-4-10.4-9.3-10.4-14.6v75.6l0,0
							c0,5.3,3.5,10.5,10.4,14.6c13.9,8,36.5,8,50.4,0C433,247.3,436.4,242,436.4,236.8z"/>
						<linearGradient id="SVGID_27_" gradientUnits="userSpaceOnUse" x1="451.0359" y1="209.2579" x2="406.6431" y2="209.2579">
							<stop  offset="1.694780e-03" style="stop-color:#00D4C8"/>
							<stop  offset="1" style="stop-color:#00D2C7;stop-opacity:0"/>
						</linearGradient>
						<path class="st43" d="M436.4,236.8v-75.6c0,5.3-3.5,10.5-10.4,14.6c-13.9,8-36.5,8-50.4,0c-7-4-10.4-9.3-10.4-14.6v75.6l0,0
							c0,5.3,3.5,10.5,10.4,14.6c13.9,8,36.5,8,50.4,0C433,247.3,436.4,242,436.4,236.8z"/>
						<linearGradient id="SVGID_28_" gradientUnits="userSpaceOnUse" x1="400.7698" y1="128.0624" x2="400.7698" y2="198.6816">
							<stop  offset="1.694780e-03" style="stop-color:#00D4C8"/>
							<stop  offset="1" style="stop-color:#00D2C7;stop-opacity:0"/>
						</linearGradient>
						<ellipse class="st44" cx="400.8" cy="161.1" rx="35.7" ry="20.6"/>
					</g>
				</g>
				<path class="st10" d="M370.4,204.2L370.4,204.2c-1.5-0.9-2.4-2.5-2.4-4.2v-21.8c0-0.7,0.8-1.2,1.4-0.8l0,0
					c1.5,0.9,2.5,2.5,2.5,4.3v21.7C371.9,204.1,371.1,204.5,370.4,204.2z"/>
				<path class="st10" d="M370.4,218.9L370.4,218.9c-1.5-0.9-2.4-2.5-2.4-4.2V210c0-0.7,0.8-1.2,1.4-0.8l0,0
					c1.5,0.9,2.5,2.5,2.5,4.3v4.5C371.9,218.8,371.1,219.3,370.4,218.9z"/>
			</g>
			<g>
				<path class="st45" d="M509.6,327.1c0,0-5.9,6.3-6.3,12.5l1.1,2.5l2.4-1.7c0,0,1.7-8.2,4.7-10.6L509.6,327.1z"/>
				<path class="st46" d="M523.4,400.4c0,0,0.4,3.9-1.5,3.7c-2.2-0.2-9-4.8-7.5-6.3c1.5-1.5,7.2,1.2,7.2,1.2L523.4,400.4z"/>
				<path class="st46" d="M511.2,406.2c0,0,0.4,3.9-1.5,3.7c-2.2-0.2-9.1-4.8-7.5-6.3s7.2,1.2,7.2,1.2L511.2,406.2z"/>
				<rect x="513" y="309.6" class="st47" width="4.1" height="5.7"/>
				<path class="st45" d="M508.7,340.5c0,0-6.5,14.9-1.6,66.1c0,0.3,0.2,0.5,0.4,0.6c0.9,0.5,3,1.4,4.1-1.5c0-0.1,0-0.2,0.1-0.2
					l4.3-53.6c0-0.9,0.5-0.9,0.6,0l2.6,49c0,0.4,0.3,0.7,0.6,0.8c1.1,0.4,3.6,0.9,4.1-2.7c0,0,4.4-53-0.7-60.2L508.7,340.5z"/>
				<path class="st46" d="M523,337.1c-0.1,0.2-0.3,0.4-0.4,0.6c-1.5,1.5-5.5,4.3-13.5,1.4c-0.2-0.1-0.3-0.2-0.5-0.3v1.6
					c0.1,0.1,0.3,0.2,0.5,0.3c8,2.9,12,0.1,13.5-1.4c0.2-0.2,0.3-0.4,0.4-0.6V337.1z"/>
				<path class="st10" d="M539.3,288.5c0,0,0-3.5,0.5-3.5c0.3-0.1,0.3,1.1,0.3,1.1s0.4-2.6,0.9-2.4c0.2,0.1-0.1,1.6-0.1,1.6
					s0.2-0.9,1.7,0c0.4,0.3,0.3,1.1-1.4,3.8L539.3,288.5z"/>
				<path class="st48" d="M522.2,311.8c0,0,12.1-1.1,16.9-23.5c0,0,1.3-0.2,2.3,0.8c0,0-0.7,27-17.5,32.2L522.2,311.8z"/>
				<path class="st49" d="M513,313.4l4.1-0.9l6.4-0.8c1.6-0.2,2.7,2.1,2.8,4.5c0.2,4.6-2.9,20.3-2.9,20.3c0,0.6-0.3,1.2-0.7,1.7
					c-1.5,1.5-5.5,4.3-13.5,1.4c-0.5-0.2-0.9-0.6-1-1.2l-3-18.6c-0.2-1,0.3-1.9,1.1-2.5L513,313.4z"/>
				<path class="st10" d="M507.9,302.4c0,0,0.5,5.5,2.8,8.4c2.3,2.8,6.7-1.8,7.4-3.2c0.7-1.4,1.7-9.9-5.2-9.9
					C508.5,297.6,507.7,300.4,507.9,302.4z"/>
				<path class="st45" d="M514.6,305.8c0,0-2.3-1.6-3.2-4.4c0,0-0.5-0.3-3.3,2.1c0,0-3.2,0-1.7-3.4c1.5-3.4,7.6-7.6,10.5-4.2
					c0,0,5.6-0.9,4.5,6.3c-1.4,9.6-5.9,8-7,5.8C513.3,305.8,514.6,305.8,514.6,305.8z"/>
				<path class="st10" d="M513.1,304.7c0,0,0.9-1.8,1.7-0.7c0.8,1.1-0.2,3.3-1.8,3.6L513.1,304.7z"/>
				<polygon class="st45" points="487.8,311.7 496.4,320.3 505.1,315.1 496.4,306.3 				"/>
				<polyline class="st50" points="495.7,316.3 495.7,314.4 497.5,314.4 497.5,310.3 				"/>
				<polyline class="st50" points="495.8,311.4 497.4,309.8 499.2,311.6 				"/>
				<path class="st10" d="M491.5,315.4c0-0.1,0.7-0.8,1.2-1.3c0.2-0.2,0.4,0,0.4,0.2l-0.4,1.3c0,0,1.8-0.5,0.8,2.5l-1.8,0.5
					L491.5,315.4z"/>
				<path class="st48" d="M493.7,318c0,0,9.4,17,3.8,18c-5.6,1.1-5.9-17.5-5.9-17.5S492.2,317.8,493.7,318z"/>
				<path class="st48" d="M506.3,317.3c0,0-2.5,1.3-6.1,6.3c-4.8,6.8-7,10.9-2.5,12.4c1.1,0.4,8.9-7.8,8.9-7.8
					S509.7,321.4,506.3,317.3z"/>
				<path class="st48" d="M512.2,313.8l0.8-1.4c0,0,1.4-0.9,4.1-0.9l1,0.8C518,312.3,517.8,313.3,512.2,313.8z"/>
			</g>
			<g>
				<polygon class="st8" points="429.3,297.1 398.6,366.3 395.8,364.6 395.8,324.4 				"/>
				<polygon class="st8" points="432.1,298.7 432.1,347 398.6,366.3 398.6,326.1 				"/>
				<linearGradient id="SVGID_29_" gradientUnits="userSpaceOnUse" x1="398.9971" y1="299.823" x2="436.8817" y2="375.5921">
					<stop  offset="0" style="stop-color:#FFFFFF;stop-opacity:0"/>
					<stop  offset="1" style="stop-color:#662D8D"/>
				</linearGradient>
				<polygon class="st51" points="432.1,298.7 432.1,347 398.6,366.3 398.6,326.1 				"/>
			</g>
			<g>
				<polygon class="st8" points="483.2,328.1 452.5,397.4 449.7,395.7 449.7,355.5 				"/>
				<polygon class="st8" points="486,329.8 486,378 452.5,397.4 452.5,357.1 				"/>
				<linearGradient id="SVGID_30_" gradientUnits="userSpaceOnUse" x1="424.7893" y1="363.5832" x2="527.7399" y2="363.5832">
					<stop  offset="0" style="stop-color:#FFFFFF;stop-opacity:0"/>
					<stop  offset="1" style="stop-color:#662D8D"/>
				</linearGradient>
				<polygon class="st52" points="486,329.8 486,378 452.5,397.4 452.5,357.1 				"/>
			</g>
			<polygon class="st8" points="452.5,359.8 395.8,327.1 486,329.8 486,332.5 			"/>
			<linearGradient id="SVGID_31_" gradientUnits="userSpaceOnUse" x1="424.7892" y1="343.4607" x2="527.7393" y2="343.4607">
				<stop  offset="0" style="stop-color:#FFFFFF;stop-opacity:0"/>
				<stop  offset="1" style="stop-color:#662D8D"/>
			</linearGradient>
			<polygon class="st53" points="452.5,359.8 395.8,327.1 486,329.8 486,332.5 			"/>
			<polygon class="st10" points="452.5,357.1 395.8,324.4 429.3,297.1 486,329.8 			"/>
			<polygon class="st45" points="451.7,352.6 402.4,324.1 430.1,301.5 479.4,330.1 			"/>
			<linearGradient id="SVGID_32_" gradientUnits="userSpaceOnUse" x1="437.0066" y1="303.972" x2="434.3587" y2="330.0724">
				<stop  offset="3.946110e-03" style="stop-color:#FFFFFF;stop-opacity:0"/>
				<stop  offset="1" style="stop-color:#FDC870"/>
			</linearGradient>
			<path class="st54" d="M439.3,327.7l-18.8-10.9c-0.4-0.3-0.5-0.9-0.1-1.2l9.9-8.1c0.5-0.4,1.3-0.5,1.9-0.2l18.5,10.7
				c0.6,0.3,0.6,1.1,0.1,1.5l-9.7,7.9C440.6,328,439.9,328,439.3,327.7z"/>
			<linearGradient id="SVGID_33_" gradientUnits="userSpaceOnUse" x1="428.0791" y1="319.9733" x2="421.4282" y2="332.587">
				<stop  offset="0" style="stop-color:#BA68C8;stop-opacity:0"/>
				<stop  offset="1" style="stop-color:#BA68C8"/>
			</linearGradient>
			<path class="st55" d="M430.8,334.4L412,323.5c-0.4-0.3-0.5-0.9-0.1-1.2l4.9-3.9c0.5-0.4,1.3-0.5,1.9-0.2l18.5,10.7
				c0.6,0.3,0.6,1.1,0.1,1.5l-4.7,3.7C432.2,334.7,431.4,334.8,430.8,334.4z"/>
			<g>
				<linearGradient id="SVGID_34_" gradientUnits="userSpaceOnUse" x1="443.6955" y1="329.7862" x2="437.5063" y2="341.5244">
					<stop  offset="1.694780e-03" style="stop-color:#00D4C8"/>
					<stop  offset="1" style="stop-color:#00D2C7;stop-opacity:0"/>
				</linearGradient>
				<path class="st56" d="M440.3,340.1l-6.1-3.5c-0.4-0.3-0.5-0.9-0.1-1.2l4.9-3.9c0.5-0.4,1.3-0.5,1.9-0.2l5.9,3.4
					c0.6,0.3,0.6,1.1,0.1,1.5l-4.7,3.7C441.7,340.4,440.9,340.4,440.3,340.1z"/>
				<linearGradient id="SVGID_35_" gradientUnits="userSpaceOnUse" x1="453.4609" y1="329.5464" x2="447.4754" y2="348.9992">
					<stop  offset="1.694780e-03" style="stop-color:#EF5350"/>
					<stop  offset="1" style="stop-color:#EF5350;stop-opacity:0"/>
				</linearGradient>
				<path class="st57" d="M449.9,345.5l-6.5-3.9c-0.4-0.3-0.5-0.9-0.1-1.2l4.9-3.9c0.5-0.4,1.3-0.5,1.9-0.2l6.3,3.7
					c0.6,0.3,0.6,1.1,0.1,1.5l-4.7,3.7C451.3,345.8,450.5,345.9,449.9,345.5z"/>
			</g>
			<polygon class="st8" points="452.5,359.8 452.5,357.1 395.8,324.4 395.8,327.1 			"/>
			<path class="st58" d="M424.2,316.2c0-0.1,9.1-0.7,9.1-0.7l1.8,3.2H446l-2.4-1.1"/>
			<line class="st58" x1="446" y1="318.7" x2="446" y2="320.5"/>
			<ellipse class="st40" cx="456.1" cy="322.4" rx="1.1" ry="0.7"/>
			<ellipse class="st59" cx="459.4" cy="324.3" rx="1.1" ry="0.7"/>
			<path class="st40" d="M463.5,326.6c-0.4,0.3-1.2,0.3-1.6,0c-0.4-0.3-0.4-0.7,0-0.9c0.4-0.3,1.2-0.3,1.6,0
				C464,326,464,326.4,463.5,326.6z"/>
			<path class="st40" d="M466.8,328.5c-0.4,0.3-1.2,0.3-1.6,0c-0.4-0.3-0.4-0.7,0-0.9c0.4-0.3,1.2-0.3,1.6,0
				C467.3,327.8,467.3,328.3,466.8,328.5z"/>
			<path class="st40" d="M470.1,330.4c-0.4,0.3-1.2,0.3-1.6,0c-0.4-0.3-0.4-0.7,0-0.9c0.4-0.3,1.2-0.3,1.6,0
				C470.6,329.7,470.6,330.1,470.1,330.4z"/>
			<path class="st40" d="M454.2,324.9c-0.4,0.3-1.2,0.3-1.6,0c-0.4-0.3-0.4-0.7,0-0.9c0.4-0.3,1.2-0.3,1.6,0
				C454.7,324.3,454.7,324.7,454.2,324.9z"/>
			<path class="st40" d="M457.5,326.8c-0.4,0.3-1.2,0.3-1.6,0c-0.4-0.3-0.4-0.7,0-0.9c0.4-0.3,1.2-0.3,1.6,0
				C458,326.2,458,326.6,457.5,326.8z"/>
			<path class="st40" d="M460.8,328.7c-0.4,0.3-1.2,0.3-1.6,0c-0.4-0.3-0.4-0.7,0-0.9c0.4-0.3,1.2-0.3,1.6,0
				C461.3,328,461.3,328.4,460.8,328.7z"/>
			<path class="st59" d="M464.1,330.6c-0.4,0.3-1.2,0.3-1.6,0c-0.4-0.3-0.4-0.7,0-0.9s1.2-0.3,1.6,0
				C464.6,329.9,464.6,330.3,464.1,330.6z"/>
			<path class="st59" d="M467.4,332.5c-0.4,0.3-1.2,0.3-1.6,0c-0.4-0.3-0.4-0.7,0-0.9c0.4-0.3,1.2-0.3,1.6,0
				C467.9,331.8,467.9,332.2,467.4,332.5z"/>
			<path class="st59" d="M451.5,327c-0.4,0.3-1.2,0.3-1.6,0c-0.4-0.3-0.4-0.7,0-0.9c0.4-0.3,1.2-0.3,1.6,0
				C452,326.3,452,326.7,451.5,327z"/>
			<path class="st40" d="M454.8,328.9c-0.4,0.3-1.2,0.3-1.6,0c-0.4-0.3-0.4-0.7,0-0.9c0.4-0.3,1.2-0.3,1.6,0
				C455.3,328.2,455.3,328.6,454.8,328.9z"/>
			<ellipse class="st59" cx="457.3" cy="330.3" rx="1.1" ry="0.7"/>
			<path class="st40" d="M461.4,332.6c-0.4,0.3-1.2,0.3-1.6,0c-0.4-0.3-0.4-0.7,0-0.9c0.4-0.3,1.2-0.3,1.6,0
				C461.8,332,461.8,332.4,461.4,332.6z"/>
			<path class="st40" d="M464.7,334.5c-0.4,0.3-1.2,0.3-1.6,0c-0.4-0.3-0.4-0.7,0-0.9c0.4-0.3,1.2-0.3,1.6,0
				C465.1,333.8,465.1,334.3,464.7,334.5z"/>
			<path class="st40" d="M448.8,329.1c-0.4,0.3-1.2,0.3-1.6,0c-0.4-0.3-0.4-0.7,0-0.9c0.4-0.3,1.2-0.3,1.6,0
				C449.3,328.4,449.3,328.8,448.8,329.1z"/>
			<path class="st40" d="M452.1,330.9c-0.4,0.3-1.2,0.3-1.6,0c-0.4-0.3-0.4-0.7,0-0.9c0.4-0.3,1.2-0.3,1.6,0
				C452.5,330.3,452.5,330.7,452.1,330.9z"/>
			<path class="st40" d="M455.4,332.8c-0.4,0.3-1.2,0.3-1.6,0c-0.4-0.3-0.4-0.7,0-0.9c0.4-0.3,1.2-0.3,1.6,0
				C455.8,332.2,455.8,332.6,455.4,332.8z"/>
			<path class="st40" d="M458.7,334.7c-0.4,0.3-1.2,0.3-1.6,0c-0.4-0.3-0.4-0.7,0-0.9c0.4-0.3,1.2-0.3,1.6,0
				C459.1,334,459.1,334.4,458.7,334.7z"/>
			<path class="st59" d="M462,336.6c-0.4,0.3-1.2,0.3-1.6,0c-0.4-0.3-0.4-0.7,0-0.9c0.4-0.3,1.2-0.3,1.6,0
				C462.4,335.9,462.4,336.3,462,336.6z"/>
			<ellipse class="st59" cx="445.3" cy="330.7" rx="1.1" ry="0.7"/>
			<ellipse class="st40" cx="448.6" cy="332.5" rx="1.1" ry="0.7"/>
			<path class="st59" d="M452.7,334.9c-0.4,0.3-1.2,0.3-1.6,0c-0.4-0.3-0.4-0.7,0-0.9c0.4-0.3,1.2-0.3,1.6,0
				C453.1,334.2,453.1,334.6,452.7,334.9z"/>
			<ellipse class="st40" cx="455.2" cy="336.3" rx="1.1" ry="0.7"/>
			<path class="st59" d="M459.3,338.6c-0.4,0.3-1.2,0.3-1.6,0c-0.4-0.3-0.4-0.7,0-0.9c0.4-0.3,1.2-0.3,1.6,0
				C459.7,338,459.7,338.4,459.3,338.6z"/>
			<g>
				<line class="st60" x1="417.6" y1="320.3" x2="434.3" y2="330.1"/>
				<line class="st60" x1="416.3" y1="321.3" x2="433" y2="331"/>
				<line class="st60" x1="415.1" y1="322.3" x2="431.8" y2="332"/>
			</g>
			<g>
				<path class="st45" d="M409,321.3c0,0,6.2,6.6,6.6,13.2l-1.2,2.6l-2.5-1.8c0,0-1.8-8.6-5-11.2L409,321.3z"/>
				<path class="st46" d="M394.4,398.7c0,0-0.4,4.1,1.6,3.9c2.3-0.2,9.6-5.1,7.9-6.6c-1.6-1.5-7.6,1.2-7.6,1.2L394.4,398.7z"/>
				<path class="st46" d="M407.2,404.8c0,0-0.4,4.1,1.6,3.9c2.3-0.2,9.6-5.1,7.9-6.6c-1.6-1.5-7.6,1.2-7.6,1.2L407.2,404.8z"/>
				
					<rect x="401.1" y="302.8" transform="matrix(-1 -1.224647e-16 1.224647e-16 -1 806.5276 611.7106)" class="st10" width="4.3" height="6.1"/>
				<path class="st45" d="M410,335.5c0,0,6.9,15.7,1.7,69.7c0,0.3-0.2,0.5-0.4,0.7c-0.9,0.5-3.2,1.4-4.4-1.6c0-0.1-0.1-0.2-0.1-0.3
					l-4.5-56.6c0-0.9-0.5-1-0.6,0l-2.8,51.7c0,0.4-0.3,0.7-0.6,0.9c-1.2,0.5-3.9,1-4.3-2.8c0,0-4.7-55.9,0.8-63.5L410,335.5z"/>
				<path class="st46" d="M394.8,331.9c0.1,0.2,0.3,0.5,0.5,0.6c1.6,1.6,5.8,4.5,14.2,1.5c0.2-0.1,0.4-0.2,0.5-0.3v1.7
					c-0.1,0.1-0.3,0.2-0.5,0.3c-8.4,3-12.7,0.1-14.2-1.5c-0.2-0.2-0.3-0.4-0.5-0.6V331.9z"/>
				<path class="st49" d="M405.4,306.8l-4.3-1l-6.8-0.9c-1.7-0.2-2.8,2.2-3,4.7c-0.2,4.9,3,21.4,3,21.4c0,0.7,0.3,1.3,0.8,1.8
					c1.6,1.6,5.8,4.5,14.2,1.5c0.5-0.2,0.9-0.7,1-1.2l3.1-19.6c0.2-1-0.3-2-1.1-2.6L405.4,306.8z"/>
				<path class="st10" d="M410.7,295.2c0,0-0.5,5.9-2.9,8.9c-2.4,3-7.1-2-7.8-3.4c-0.7-1.4-1.8-10.5,5.4-10.5
					C410.1,290.2,411,293.1,410.7,295.2z"/>
				<path class="st45" d="M403.7,298.9c0,0,2.4-1.7,3.4-4.7c0,0,0.5-0.3,3.5,2.2c0,0,3.4,0,1.8-3.5c-1.6-3.5-8-8-11.1-4.5
					c0,0-5.9-1-4.8,6.7c1.5,10.1,6.2,8.4,7.4,6.1C405.1,298.9,403.7,298.9,403.7,298.9z"/>
				<path class="st10" d="M405.3,297.7c0,0-1-1.9-1.8-0.8c-0.8,1.2,0.2,3.5,1.9,3.8L405.3,297.7z"/>
				<path class="st10" d="M440.7,332.1c0.1,0,0.6,0.9,1.1,1.6c0.1,0.2-0.1,0.4-0.3,0.3l-1.2-0.7c0,0,0.1,2-2.8,0.2l-0.1-1.9
					L440.7,332.1z"/>
				<path class="st48" d="M438,331.6c0,0-17.8-10.1-19-4.2c-1.2,5.9,18.4,6.4,18.4,6.4S438.2,333.2,438,331.6z"/>
				<path class="st48" d="M412.5,311c0,0,2.7,1.3,6.4,6.6c5.1,7.2,7.4,11.5,2.7,13.1c-1.2,0.4-9.4-8.2-9.4-8.2
					S408.9,315.4,412.5,311z"/>
				<path class="st48" d="M406.3,307.3l-0.9-1.5c0,0-1.5-0.9-4.3-1l-1,0.9C400.1,305.8,400.3,306.8,406.3,307.3z"/>
			</g>
		</g>
		
			<linearGradient id="SVGID_36_" gradientUnits="userSpaceOnUse" x1="666.3082" y1="264.8731" x2="666.3082" y2="174.1708" gradientTransform="matrix(-0.999 -4.390000e-02 4.390000e-02 -0.999 1270.3124 471.8516)">
			<stop  offset="1.860120e-03" style="stop-color:#AC24B9"/>
			<stop  offset="1" style="stop-color:#2E2142"/>
		</linearGradient>
		<path class="st61" d="M599.1,198.8c3.5,9.6,16.7,21.9,27.4,17.3c5.3-2.3,8.2-9.8,4.7-14.3c-2.5-3.2-7.1-4.1-10.4-6.5
			c-2.9-2.2-4.7-5.7-6.9-8.6c-2.2-2.9-5.5-5.6-9.2-5.2c-7.7,0.9-7.7,11.4-5.9,16.9C599,198.5,599,198.6,599.1,198.8z"/>
	</g>
</g>
</svg>
